<svg width="200" height="49" viewBox="0 0 200 49" fill="none" xmlns="http://www.w3.org/2000/svg">
<path d="M110.566 10.1989C110.566 10.0038 110.566 9.77873 110.326 9.74872C109.064 9.44776 107.774 9.28672 106.477 9.26851C101.426 9.16347 99.3367 12.4799 99.3367 16.2915V36.7452C99.3405 36.8301 99.3771 36.9103 99.4387 36.969C99.5003 37.0277 99.5822 37.0604 99.6674 37.0603H103.411C103.494 37.0603 103.575 37.0271 103.634 36.968C103.693 36.9089 103.726 36.8288 103.726 36.7452V16.8017C103.685 16.2597 103.754 15.715 103.927 15.1997C104.1 14.6843 104.374 14.2086 104.733 13.8004C105.17 13.4627 105.672 13.2179 106.207 13.0811C106.742 12.9443 107.3 12.9184 107.845 13.0051L109.739 13.1252C109.815 13.123 109.888 13.095 109.945 13.0458C110.002 12.9967 110.041 12.9293 110.055 12.855L110.641 10.1989H110.566Z" fill="white"/>
<path d="M126.411 9.14847C117.226 9.14847 113.979 12.8701 113.979 23.3595C113.979 33.849 117.226 37.4505 126.411 37.4505C135.596 37.4505 138.843 33.7589 138.843 23.3595C138.843 12.9601 135.596 9.14847 126.411 9.14847ZM126.411 33.984C120.398 33.984 118.458 31.4029 118.458 23.3595C118.458 15.3161 120.398 12.675 126.411 12.675C132.424 12.675 134.363 15.2711 134.363 23.3595C134.363 31.448 132.424 34.014 126.411 34.014" fill="white"/>
<path d="M30.6519 10.1839V36.7452C30.6519 36.8288 30.6851 36.9089 30.7443 36.968C30.8035 37.0271 30.8838 37.0603 30.9675 37.0603H34.6656C34.7493 37.0603 34.8296 37.0271 34.8888 36.968C34.948 36.9089 34.9813 36.8288 34.9813 36.7452V10.1839C34.9813 10.1003 34.948 10.0202 34.8888 9.96108C34.8296 9.90198 34.7493 9.86877 34.6656 9.86877H30.9675C30.8838 9.86877 30.8035 9.90198 30.7443 9.96108C30.6851 10.0202 30.6519 10.1003 30.6519 10.1839Z" fill="white"/>
<path d="M196.93 48C196.271 48.001 195.639 47.7421 195.171 47.2797L187.474 39.5964L179.792 47.2797C179.561 47.5093 179.287 47.6912 178.986 47.8151C178.684 47.939 178.362 48.0024 178.036 48.0017C177.71 48.001 177.387 47.9362 177.086 47.811C176.785 47.6859 176.512 47.5028 176.282 47.2722C176.052 47.0416 175.87 46.7681 175.746 46.4672C175.622 46.1664 175.558 45.844 175.559 45.5187C175.56 45.1933 175.624 44.8712 175.75 44.5709C175.875 44.2706 176.059 43.9978 176.29 43.7682L185.73 34.3442C186.195 33.8814 186.825 33.6216 187.481 33.6216C188.138 33.6216 188.768 33.8814 189.233 34.3442L198.673 43.7682C199.021 44.1136 199.259 44.5543 199.356 45.0345C199.453 45.5147 199.405 46.0129 199.218 46.4659C199.032 46.919 198.715 47.3065 198.307 47.5796C197.9 47.8527 197.42 47.999 196.93 48Z" fill="#E73E2A"/>
<path d="M90.1968 33.4738C90.1856 33.3968 90.1448 33.3271 90.0831 33.2795C90.0214 33.2319 89.9436 33.2101 89.866 33.2187C87.5428 33.6979 85.1722 33.9093 82.8006 33.849C76.7875 33.849 74.1267 32.1683 74.1267 25.6105V25.5204H87.4758C91.5497 25.5204 93.6092 22.6542 93.6092 17.8071C93.6092 11.9096 89.385 9.19348 81.583 9.19348C71.9921 9.19348 69.4666 12.8851 69.4666 22.9393C69.4666 34.1791 71.8267 37.4355 82.0941 37.4355C84.9271 37.4407 87.7514 37.1235 90.5125 36.4901C90.5981 36.4721 90.6731 36.4209 90.721 36.3477C90.7689 36.2746 90.7858 36.1855 90.768 36.0999L90.1968 33.4738ZM74.1718 20.6133C74.3522 14.8659 75.9607 12.735 81.8987 12.735C86.7092 12.735 89.2046 14.1456 89.2647 17.7921C89.3319 18.9613 89.0549 20.1246 88.468 21.1386C88.1853 21.5003 87.8185 21.7878 87.3994 21.9761C86.9803 22.1643 86.5215 22.2477 86.0628 22.219H74.1718V20.6133Z" fill="white"/>
<path d="M3.93859 13.0051C3.94981 13.0822 3.99058 13.1518 4.05228 13.1994C4.11399 13.247 4.19181 13.2688 4.26931 13.2602C6.54037 12.9399 8.83067 12.7744 11.1243 12.765C17.1374 12.765 18.8962 14.4757 18.8962 21.0185V21.0936H8.14777C3.00656 21.1086 0 23.9898 0 28.8369C0 34.7194 3.63794 37.4505 11.44 37.4505C24.5486 37.4505 23.5564 35.3196 23.5564 23.7047C23.5564 12.4649 21.6322 9.16348 11.3798 9.16348C8.7766 9.168 6.18129 9.44971 3.63794 10.0038C3.55538 10.0219 3.4829 10.0709 3.43538 10.1407C3.38785 10.2104 3.36889 10.2957 3.38238 10.379L3.93859 13.0051ZM18.9714 26.0307C18.9714 34.2392 19.8283 33.969 11.1844 33.969C6.28371 34.0141 4.50984 32.5134 4.38958 28.8369C4.32498 27.708 4.66023 26.5924 5.33664 25.6855C5.75201 25.2103 6.27699 24.8431 6.86627 24.6156C7.45555 24.3882 8.09143 24.3073 8.71902 24.38H18.8962V26.0307H18.9714Z" fill="white"/>
<path d="M35.0564 4.09132C35.0564 4.31419 34.9677 4.52794 34.8099 4.68554C34.652 4.84314 34.4379 4.93167 34.2146 4.93167H31.4185C31.1952 4.93167 30.9811 4.84314 30.8232 4.68554C30.6654 4.52794 30.5767 4.31419 30.5767 4.09132V1.84036C30.5767 1.61748 30.6654 1.40373 30.8232 1.24614C30.9811 1.08854 31.1952 1 31.4185 1H34.2146C34.4379 1 34.652 1.08854 34.8099 1.24614C34.9677 1.40373 35.0564 1.61748 35.0564 1.84036V4.09132Z" fill="white"/>
<path d="M62.8822 37.4505C63.4293 37.4528 63.9762 37.4278 64.5208 37.3755C64.5992 37.368 64.6719 37.3315 64.7248 37.2732C64.7776 37.2149 64.8067 37.139 64.8064 37.0604L65.1521 34.4492C65.1453 34.3679 65.1099 34.2917 65.0521 34.234C64.9943 34.1763 64.9179 34.1409 64.8364 34.1341C63.7374 34.1132 62.6778 33.7219 61.8299 33.0236C61.4413 32.5339 61.1591 31.9688 61.0013 31.3642C60.8434 30.7597 60.8133 30.1289 60.9129 29.5121V1.31514C60.9129 1.13507 60.8227 0.969997 60.5972 1.00001H56.824C56.5985 1.00001 56.5233 1.13507 56.5233 1.31514V30.2324C56.5233 34.6593 58.8384 37.4505 62.8822 37.4505Z" fill="white"/>
<path d="M159.693 9.86877H152.177C147.171 9.86877 144.841 11.9997 144.841 16.6066V36.7452C144.841 36.8288 144.874 36.9089 144.933 36.968C144.993 37.0271 145.073 37.0603 145.157 37.0603H148.915C148.999 37.0603 149.079 37.0271 149.138 36.968C149.197 36.9089 149.231 36.8288 149.231 36.7452V17.5821C149.19 17.04 149.258 16.4954 149.431 15.98C149.604 15.4646 149.878 14.9889 150.238 14.5808C150.665 14.1838 151.17 13.879 151.721 13.6854C152.272 13.4918 152.857 13.4135 153.44 13.4553H158.416C159 13.4141 159.587 13.4926 160.141 13.6862C160.694 13.8797 161.202 14.1842 161.633 14.5808C161.991 14.9894 162.265 15.4651 162.438 15.9804C162.611 16.4957 162.68 17.0401 162.64 17.5821V36.7452C162.64 36.8288 162.673 36.9089 162.732 36.968C162.791 37.0271 162.872 37.0603 162.955 37.0603H166.699C166.741 37.0624 166.784 37.0557 166.824 37.0408C166.864 37.0259 166.901 37.003 166.932 36.9735C166.963 36.9441 166.987 36.9086 167.004 36.8694C167.021 36.8301 167.029 36.7879 167.029 36.7452V16.6066C167.029 12.0147 164.699 9.86877 159.693 9.86877Z" fill="white"/>
<path d="M49.3677 37.4505C49.9148 37.4535 50.4617 37.4284 51.0062 37.3755C51.0861 37.3683 51.1606 37.3323 51.2159 37.2744C51.2712 37.2164 51.3036 37.1403 51.3069 37.0604L51.6376 34.4492C51.6343 34.3693 51.602 34.2932 51.5467 34.2352C51.4913 34.1773 51.4168 34.1413 51.337 34.1341C50.2393 34.1063 49.1819 33.7157 48.3304 33.0236C47.9432 32.5328 47.6607 31.9681 47.5004 31.3641C47.3402 30.7602 47.3054 30.13 47.3984 29.5121V1.31514C47.3984 1.13507 47.3232 0.969997 47.0977 1.00001H43.3245C43.099 1.00001 43.0088 1.13507 43.0088 1.31514V30.2324C43.0088 34.6593 45.3389 37.4505 49.3677 37.4505Z" fill="white"/>
</svg>
